# xmcd
#
# Track frame offsets:
#	150
#	10805
#	22892
#	31405
#	40996
#	49776
#	61381
#	74577
#	85392
#	96172
#
# Disc length: 1438 seconds
#
# Revision: 1
# Processed by: cddbd v1.5.2PL0 Copyright (c) Steve Scherf et al.
# Submitted via: audiograbber 1.83.01
#
DISCID=7f059c0a
DTITLE=George Jones - Sings Bob Wills
DYEAR=1962
DGENRE=Country
TTITLE0=Bubbles In My Beer
TTITLE1=Faded Love
TTITLE2=Roly Poly
TTITLE3=Trouble In Mind
TTITLE4=Take Me Back To Tulsa
TTITLE5=Warm Red Wine
TTITLE6=Time Changes Everythin
TTITLE7=Silver Dew On The Blue
TTITLE8=Steel Guitar Rag
TTITLE9=Big Beaver
EXTD=
EXTT0=
EXTT1=
EXTT2=
EXTT3=
EXTT4=
EXTT5=
EXTT6=
EXTT7=
EXTT8=
EXTT9=
PLAYORDER=
